# Blender v2.79 (sub 0) OBJ File: ''
# www.blender.org
mtllib originium_crystal.mtl
o Green_Crystal_Cylinder.013
v 0.714756 -0.049675 0.328839
v 0.796127 0.445635 0.219262
v 0.830770 -0.054087 0.409286
v 0.932027 0.507259 0.310643
v 0.809336 -0.031081 0.510843
v 0.908211 0.530265 0.423485
v 0.671887 -0.003664 0.531955
v 0.709860 0.489708 0.502424
v 0.555874 0.000747 0.451508
v 0.626586 0.562093 0.357557
v 0.577308 -0.022258 0.34995
v 0.650402 0.539088 0.244716
v 0.822299 0.815350 0.285952
v 0.671826 -0.167006 0.454471
v 0.366575 -0.037490 0.10686
v 0.229906 0.592416 -0.08917
v 0.554939 -0.001287 0.115374
v 0.465361 0.637670 -0.078527
v 0.634849 0.053051 0.281283
v 0.565248 0.705593 0.128859
v 0.526395 0.071187 0.438677
v 0.429681 0.728262 0.325602
v 0.338032 0.034984 0.430163
v 0.194227 0.683009 0.314959
v 0.258122 -0.019355 0.264254
v 0.094339 0.615085 0.107573
v 0.279783 0.936121 0.051979
v 0.479826 -0.167006 0.316926
v 0.538781 -0.058175 0.586888
v 0.382956 0.322534 0.851493
v 0.453306 -0.066720 0.549446
v 0.248646 0.302168 0.793682
v 0.433119 0.005618 0.423596
v 0.224954 0.399459 0.598183
v 0.552219 0.057019 0.41362
v 0.416364 0.482067 0.582150
v 0.630711 0.009843 0.534586
v 0.533761 0.425216 0.769800
v 0.284286 0.585917 0.827745
v 0.561667 -0.132742 0.436485
vt 0.398487 0.425314
vt 0.431081 0.664938
vt 0.358610 0.704069
vt 0.332433 0.432856
vt 0.303465 0.708879
vt 0.282682 0.438251
vt 0.206619 0.675976
vt 0.216125 0.442839
vt 0.127660 0.709329
vt 0.149691 0.440270
vt 0.724750 0.742506
vt 0.741403 0.677902
vt 0.815894 0.715403
vt 0.099963 0.434669
vt 0.072535 0.704298
vt 0.000266 0.664793
vt 0.033907 0.425314
vt 0.848314 0.337912
vt 0.800710 0.270701
vt 0.923800 0.177527
vt 0.775755 0.221292
vt 0.734910 0.145935
vt 0.808487 0.074885
vt 0.852107 0.040806
vt 0.923800 0.000266
vt 0.890385 0.677902
vt 0.906119 0.742498
vt 0.880038 0.785206
vt 0.815099 0.800496
vt 0.750324 0.785519
vt 0.293740 0.080660
vt 0.367056 0.405499
vt 0.240231 0.424781
vt 0.213937 0.121389
vt 0.114526 0.424781
vt 0.136307 0.125744
vt 0.000266 0.411002
vt 0.050349 0.091841
vt 0.661062 0.080660
vt 0.734378 0.405500
vt 0.607553 0.424781
vt 0.581259 0.121389
vt 0.503630 0.125744
vt 0.417672 0.091841
vt 0.536484 0.000266
vt 0.481848 0.424781
vt 0.367588 0.411001
vt 0.292870 0.808523
vt 0.203052 0.877038
vt 0.146568 0.709861
vt 0.090085 0.877038
vt 0.000266 0.808523
vt 0.431613 0.746417
vt 0.521432 0.677902
vt 0.577916 0.845079
vt 0.634399 0.677902
vt 0.724218 0.746417
vt 0.169162 0.000266
vt 0.685728 0.445985
vt 0.697257 0.675923
vt 0.627780 0.677370
vt 0.641684 0.448346
vt 0.525213 0.664362
vt 0.572823 0.444242
vt 0.431613 0.633942
vt 0.514584 0.425314
vt 0.885468 0.871058
vt 0.833699 0.899752
vt 0.812110 0.822981
vt 0.744695 0.440842
vt 0.790763 0.665440
vt 0.814401 0.425314
vt 0.894008 0.635248
vt 0.604034 0.848177
vt 0.685981 0.894416
vt 0.569743 0.976535
vt 0.707873 0.999734
vt 0.431613 0.999734
vt 0.448433 0.902763
vt 0.534590 0.845611
vt 0.789591 0.899710
vt 0.731929 0.861845
vt 0.724750 0.801029
vt 0.899470 0.801029
vn 0.5837 -0.2529 -0.7716
vn 0.9635 -0.1333 0.2320
vn 0.2824 0.0694 0.9568
vn -0.7136 0.1536 0.6835
vn -0.2413 -0.6667 -0.7051
vn -0.2271 -0.1620 -0.9603
vn -0.9711 0.0848 -0.2232
vn -0.0554 0.1810 -0.9819
vn -0.7965 0.5371 -0.2776
vn -0.5393 0.5874 0.6035
vn 0.2382 0.4793 0.8447
vn 0.9312 0.3418 0.1268
vn 0.5174 0.1163 -0.8478
vn 0.3644 -0.7394 -0.5661
vn 0.6077 -0.7372 0.2953
vn 0.0532 -0.4280 0.9022
vn -0.5408 -0.3604 0.7601
vn -0.8214 -0.5686 -0.0446
vn 0.0964 -0.2766 -0.9561
vn 0.9016 -0.0049 -0.4326
vn 0.8159 0.2126 0.5377
vn -0.0749 0.1584 0.9845
vn -0.4961 -0.8327 -0.2459
vn -0.7944 -0.3309 -0.5093
vn -0.8801 -0.1133 0.4610
vn -0.7558 0.3396 -0.5599
vn -0.8254 0.5163 0.2284
vn -0.1712 0.7371 0.6537
vn 0.5525 0.7812 0.2907
vn 0.6221 0.6044 -0.4976
vn -0.0320 0.3837 -0.9229
vn 0.1786 -0.7916 -0.5843
vn 0.7884 -0.5858 -0.1879
vn 0.7235 -0.4211 0.5470
vn 0.0488 -0.4621 0.8855
vn -0.5610 -0.6680 0.4890
vn -0.2411 -0.6218 0.7451
vn -0.8974 -0.4288 -0.1038
vn -0.2083 0.3022 -0.9302
vn 0.6815 -0.6091 0.4057
vn 0.6060 -0.2760 0.7461
vn 0.8254 0.4134 -0.3846
vn 0.3492 0.2131 0.9125
vn 0.5279 0.8461 -0.0739
vn -0.3740 0.7648 -0.5245
vn -0.9801 0.1027 0.1699
vn -0.3867 -0.0619 0.9201
vn -0.0986 -0.8975 0.4299
vn -0.6919 -0.6683 -0.2731
vn -0.0309 -0.1211 -0.9922
vn 0.8342 -0.0249 -0.5510
usemtl None
s off
f 1/1/1 2/2/1 4/3/1 3/4/1
f 3/4/2 4/3/2 6/5/2 5/6/2
f 5/6/3 6/5/3 8/7/3 7/8/3
f 7/8/4 8/7/4 10/9/4 9/10/4
f 11/11/5 1/12/5 14/13/5
f 11/14/6 12/15/6 2/16/6 1/17/6
f 9/10/7 10/9/7 12/15/7 11/14/7
f 2/18/8 12/19/8 13/20/8
f 12/19/9 10/21/9 13/20/9
f 10/21/10 8/22/10 13/20/10
f 8/22/11 6/23/11 13/20/11
f 6/23/12 4/24/12 13/20/12
f 4/24/13 2/25/13 13/20/13
f 1/26/14 3/27/14 14/13/14
f 3/27/15 5/28/15 14/13/15
f 5/28/16 7/29/16 14/13/16
f 7/29/17 9/30/17 14/13/17
f 9/30/18 11/11/18 14/13/18
f 15/31/19 16/32/19 18/33/19 17/34/19
f 17/34/20 18/33/20 20/35/20 19/36/20
f 19/36/21 20/35/21 22/37/21 21/38/21
f 21/39/22 22/40/22 24/41/22 23/42/22
f 25/43/23 15/44/23 28/45/23
f 25/43/24 26/46/24 16/47/24 15/44/24
f 23/42/25 24/41/25 26/46/25 25/43/25
f 16/48/26 26/49/26 27/50/26
f 26/49/27 24/51/27 27/50/27
f 24/51/28 22/52/28 27/50/28
f 22/53/29 20/54/29 27/55/29
f 20/54/30 18/56/30 27/55/30
f 18/56/31 16/57/31 27/55/31
f 15/31/32 17/34/32 28/58/32
f 17/34/33 19/36/33 28/58/33
f 19/36/34 21/38/34 28/58/34
f 21/39/35 23/42/35 28/45/35
f 23/42/36 25/43/36 28/45/36
f 29/59/37 30/60/37 32/61/37 31/62/37
f 31/62/38 32/61/38 34/63/38 33/64/38
f 33/64/39 34/63/39 36/65/39 35/66/39
f 37/67/40 29/68/40 40/69/40
f 37/70/41 38/71/41 30/60/41 29/59/41
f 35/72/42 36/73/42 38/71/42 37/70/42
f 30/74/43 38/75/43 39/76/43
f 38/75/44 36/77/44 39/76/44
f 36/78/45 34/79/45 39/76/45
f 34/79/46 32/80/46 39/76/46
f 32/80/47 30/74/47 39/76/47
f 29/68/48 31/81/48 40/69/48
f 31/81/49 33/82/49 40/69/49
f 33/82/50 35/83/50 40/69/50
f 35/84/51 37/67/51 40/69/51
